<svg id="Layer_1" data-name="Layer 1" xmlns="http://www.w3.org/2000/svg" width="1200" height="270" viewBox="0 0 1200 270"><defs><style>.cls-1{fill:red;}.cls-2{fill:#ffff0d;}</style></defs><rect class="cls-1" x="0.5" y="0.5" width="1199" height="269"/><path d="M1199,1V269H1V1H1199m1-1H0V270H1200V0Z"/><path class="cls-2" d="M111.84,81.5h38.79q14.22,0,19.48,1.57A22.63,22.63,0,0,1,187,105.76a24.17,24.17,0,0,1-2.39,10.88,23.24,23.24,0,0,1-7,8.25,26.37,26.37,0,0,1-8,3.78,33.25,33.25,0,0,1,9.68,3.43,21.1,21.1,0,0,1,7.93,8.57,26.67,26.67,0,0,1,2.92,12.58,28,28,0,0,1-2.87,12.58,25.21,25.21,0,0,1-8.09,9.5A27.73,27.73,0,0,1,167,180.08a97.21,97.21,0,0,1-14.32,1H111.84v-6h2.75q4,0,5.44-1.5c1.4-1.38,2.1-3.66,2.1-6.86V97.57a23,23,0,0,0-.64-6.69,4.79,4.79,0,0,0-1.93-2.59c-.86-.53-2.51-.79-5-.79h-2.75Zm21.22,7.93v36.49H148q10.48,0,14.35-1.22a17.07,17.07,0,0,0,9.22-6.57q3.18-4.63,3.19-11.92A17.35,17.35,0,0,0,171.85,96a14.44,14.44,0,0,0-7.76-5.61q-3.17-.91-13.11-.92Zm0,43.34v32.71a25.21,25.21,0,0,0,.36,5.85,2.88,2.88,0,0,0,1.87,1.79,24.06,24.06,0,0,0,5.61.36h7.95q11.81,0,16.86-1.61a16.6,16.6,0,0,0,8.63-6.78,21.49,21.49,0,0,0,3.56-12.47A20.46,20.46,0,0,0,175,141.74a16.55,16.55,0,0,0-8-6.86q-5.12-2.1-18.15-2.11Z"/><path class="cls-2" d="M199.42,122.42v-5.93a38.8,38.8,0,0,0,8.15-2,40.93,40.93,0,0,0,7.51-4h4.27v57.27a11.05,11.05,0,0,0,.7,4.5,4.57,4.57,0,0,0,2,2.18,10.73,10.73,0,0,0,4.59.68h2.75v6H199.42v-6h2.39c2.61,0,4.37-.29,5.26-.86a4.58,4.58,0,0,0,1.9-2.43q.56-1.56.56-7.35V122.42Zm14.84-44.13a6,6,0,0,1,4.8,2.39,8.82,8.82,0,0,1,2,5.82,9,9,0,0,1-2,5.85,5.95,5.95,0,0,1-9.59,0,9,9,0,0,1-2-5.85,8.82,8.82,0,0,1,2-5.82A6,6,0,0,1,214.26,78.29Z"/><path class="cls-2" d="M275.35,112.21h4.11l5.25,21.85-5.26,2.14a32.9,32.9,0,0,0-8.86-13.82q-5.7-5-11.55-5a10.11,10.11,0,0,0-7.3,2.68,8.45,8.45,0,0,0-.76,11.81q2,2.43,8.94,5.5l11.4,4.93q9.65,4.22,13.15,9a18.53,18.53,0,0,1,3.45,11,21.08,21.08,0,0,1-2.57,10A19.42,19.42,0,0,1,277.9,180a21.82,21.82,0,0,1-11.2,2.85A23.21,23.21,0,0,1,249.87,176l-1.23,5.15h-4.16l-7.3-23.35,5.26-2.57q5.33,10.28,10.07,14.56,6.62,6.08,14.29,6.07a11.22,11.22,0,0,0,8.37-3.32,10.27,10.27,0,0,0,3.28-7.39,10.16,10.16,0,0,0-2-6.14q-2.12-2.72-8.07-5.28l-13.51-6q-8.7-3.85-12.1-8.43a17.13,17.13,0,0,1-3.39-10.5A17.51,17.51,0,0,1,244.87,116a19,19,0,0,1,14.06-5.54,21.38,21.38,0,0,1,7.95,1.4,22,22,0,0,1,6.9,4.62Z"/><path class="cls-2" d="M313.47,87.93h4.15v24.28H335v7.14H317.62v43.06a27.22,27.22,0,0,0,.79,7.85,8,8,0,0,0,2.69,3.86,6.66,6.66,0,0,0,4.24,1.5q5.55,0,12.27-6.07v6.93q-7.67,6.35-15.52,6.35a14.06,14.06,0,0,1-8-2.43,12.57,12.57,0,0,1-4.92-5.71q-1.32-3.28-1.32-11.42V119.35H297.57v-6a18.53,18.53,0,0,0,7.95-4.21,21.12,21.12,0,0,0,4.9-7.43Q312.3,97.14,313.47,87.93Z"/><path class="cls-2" d="M343.46,122.42v-5.93a28.42,28.42,0,0,0,7.58-1.73,38.09,38.09,0,0,0,7.57-4.27H363V124a34.81,34.81,0,0,1,9.65-9.86q5.49-3.63,9.88-3.64a9.31,9.31,0,0,1,6.84,2.5,8.27,8.27,0,0,1,2.51,6.07,6.8,6.8,0,0,1-1.66,4.54,5.1,5.1,0,0,1-4,2,4.17,4.17,0,0,1-1.81-.36,11.44,11.44,0,0,1-2.22-1.57q-3.23-2.56-5.38-2.57-2.92,0-6.43,3a40.28,40.28,0,0,0-7,7.57v32.92a29.1,29.1,0,0,0,.38,5.82A6.75,6.75,0,0,0,365,173a5,5,0,0,0,2.16,1.61,14,14,0,0,0,4.5.5h1.93v6H343.4v-6h2.51c2.38,0,3.94-.26,4.68-.79a6.31,6.31,0,0,0,2.25-3,21.41,21.41,0,0,0,.73-6.82V122.42Z"/><path class="cls-2" d="M425.71,110.49a25.5,25.5,0,0,1,14.88,4.36,29,29,0,0,1,9.91,12.71,47.62,47.62,0,0,1,3.62,19.07,46.56,46.56,0,0,1-3.71,19.06,29.59,29.59,0,0,1-10.11,12.75A26.36,26.36,0,0,1,425,182.83q-14.14,0-21.25-10.78t-7.1-25.35a45.84,45.84,0,0,1,3.68-18.89A29.58,29.58,0,0,1,410.66,115,26,26,0,0,1,425.71,110.49Zm-.47,6.93q-6.66,0-11.28,6.43-5.85,8-5.85,23.28,0,14.7,5,22.42,4.5,6.85,12.22,6.86a13.55,13.55,0,0,0,8.86-3.22q3.88-3.21,6.28-10.25a51.18,51.18,0,0,0,2.4-16.53,50.38,50.38,0,0,0-2.57-16.64,19.47,19.47,0,0,0-6-9.1A13.94,13.94,0,0,0,425.24,117.42Z"/><path class="cls-2" d="M502.06,81.5h38.79q14.21,0,19.48,1.57a22.66,22.66,0,0,1,16.85,22.69,24,24,0,0,1-2.4,10.88,23.24,23.24,0,0,1-7,8.25,26.31,26.31,0,0,1-8,3.78,33.48,33.48,0,0,1,9.68,3.43,21.23,21.23,0,0,1,7.93,8.57,26.79,26.79,0,0,1,2.91,12.58,28,28,0,0,1-2.86,12.58,25.24,25.24,0,0,1-8.1,9.5,27.73,27.73,0,0,1-12.19,4.75,97.21,97.21,0,0,1-14.32,1H502.06v-6h2.74c2.65,0,4.47-.5,5.44-1.5,1.4-1.38,2.11-3.66,2.11-6.86V97.57a22.93,22.93,0,0,0-.65-6.69,4.79,4.79,0,0,0-1.93-2.59c-.85-.53-2.51-.79-5-.79h-2.74Zm21.22,7.93v36.49h14.93q10.47,0,14.34-1.22a17,17,0,0,0,9.22-6.57Q565,113.5,565,106.21A17.35,17.35,0,0,0,562.06,96a14.44,14.44,0,0,0-7.76-5.61q-3.15-.91-13.11-.92Zm0,43.34v32.71a25.48,25.48,0,0,0,.35,5.85,2.88,2.88,0,0,0,1.87,1.79,24.06,24.06,0,0,0,5.61.36h7.95q11.81,0,16.87-1.61a16.58,16.58,0,0,0,8.62-6.78,21.43,21.43,0,0,0,3.57-12.47,20.46,20.46,0,0,0-2.9-10.88,16.55,16.55,0,0,0-8-6.86q-5.12-2.1-18.15-2.11Z"/><path class="cls-2" d="M632.18,139.77V132q0-7.94-3.64-11.32t-10.25-3.39a15.76,15.76,0,0,0-5.74,1,10.13,10.13,0,0,0-3.95,2.64,10.75,10.75,0,0,0-2.2,3.82c-.2.53-.66,2.55-1.41,6.07-.89,4.29-2.71,6.43-5.43,6.43a4.5,4.5,0,0,1-3.77-1.89,8.25,8.25,0,0,1-1.44-5.11,17.17,17.17,0,0,1,2.87-9.25,21.31,21.31,0,0,1,8.74-7.49,30.38,30.38,0,0,1,13.88-3,27,27,0,0,1,12.8,2.82,17.52,17.52,0,0,1,7.84,8.1c1.17,2.42,1.75,6.85,1.75,13.26v27.47a61.77,61.77,0,0,0,.29,7.63,8.56,8.56,0,0,0,2.26,4.6,5.8,5.8,0,0,0,4.17,1.54,17.72,17.72,0,0,0,6.44-1.52v6.23a26.59,26.59,0,0,1-8.72,1.71,15.31,15.31,0,0,1-7-1.43,11.93,11.93,0,0,1-4.65-4.17,15.6,15.6,0,0,1-2.34-6.54q-7,6.72-12.68,9.43a26.29,26.29,0,0,1-11.46,2.71,17.16,17.16,0,0,1-13.1-5.35,17.77,17.77,0,0,1-5-12.57,18.94,18.94,0,0,1,7.46-15.21q3.78-3,11.85-5.29A165,165,0,0,1,632.18,139.77Zm0,6.22q-13.57,2.41-16.79,3.35-6.37,1.78-9.13,3.93a13.08,13.08,0,0,0-3.92,4.61,12,12,0,0,0-1.16,5.24,11.74,11.74,0,0,0,1.31,5.39,10.13,10.13,0,0,0,3.72,4.11,9.4,9.4,0,0,0,5.09,1.5,20.92,20.92,0,0,0,8.59-2.21q4.8-2.22,12.29-8.64Z"/><path class="cls-2" d="M658.49,88.28V82.36A28.54,28.54,0,0,0,666,80.64,41.9,41.9,0,0,0,674,76.36h4.28v43.56a38.45,38.45,0,0,1,10.58-7.07A27.73,27.73,0,0,1,700,110.49a19.38,19.38,0,0,1,12.1,4.29,28.41,28.41,0,0,1,8.74,12.1A48.84,48.84,0,0,1,724,145.34q0,16.71-8,27.49-7.42,10-18.83,10a21.81,21.81,0,0,1-12.21-3.5,28.79,28.79,0,0,1-7.72-7.92L674,181.12h-5.43V88.28ZM678.31,127v27.49a37,37,0,0,0,.76,9.11,14.67,14.67,0,0,0,3.13,5.35,17.86,17.86,0,0,0,5.55,4.36,14.49,14.49,0,0,0,6.58,1.61,15,15,0,0,0,9.47-3.36,22.16,22.16,0,0,0,6.72-9.93A45.09,45.09,0,0,0,713,145.84q0-12.93-5.21-20.71a13.1,13.1,0,0,0-11.63-6.42,19.42,19.42,0,0,0-7.83,1.74A49.48,49.48,0,0,0,678.31,127Z"/><path class="cls-2" d="M730.63,112.21l22.16-1.07v46a27.42,27.42,0,0,0,1.37,9.64,11.58,11.58,0,0,0,4.21,5.54,11.34,11.34,0,0,0,6.63,2,23.59,23.59,0,0,0,10.62-3.07,46.61,46.61,0,0,0,11.83-9.14V128.77q0-5.28-.64-6.92a5.3,5.3,0,0,0-2.28-2.64,10.15,10.15,0,0,0-5.14-1h-4.27v-6l22.15-1.07v53.27a23.93,23.93,0,0,0,.71,7.1,5,5,0,0,0,2.07,2.79q1.38.82,5.53.82h1.81v6L788,182.33V169.12q-8,7.78-14,10.75a27,27,0,0,1-12.1,3,19.3,19.3,0,0,1-7.92-1.5,16.5,16.5,0,0,1-5.91-4.5,20.9,20.9,0,0,1-3.89-7.21,29.64,29.64,0,0,1-1.34-9V128.13a20.16,20.16,0,0,0-.64-6.1,5.68,5.68,0,0,0-2.14-2.79,7,7,0,0,0-4.06-1h-5.38Z"/><path class="cls-2" d="M854.8,112.21h4.1l5.25,21.85-5.26,2.14A32.8,32.8,0,0,0,850,122.38q-5.7-5-11.54-5a10.13,10.13,0,0,0-7.31,2.68,8.47,8.47,0,0,0-.76,11.81q2,2.43,9,5.5l11.39,4.93q9.66,4.22,13.16,9a18.53,18.53,0,0,1,3.45,11,21,21,0,0,1-2.58,10,19.36,19.36,0,0,1-7.45,7.68,21.76,21.76,0,0,1-11.19,2.85A23.25,23.25,0,0,1,829.31,176l-1.23,5.15h-4.16l-7.3-23.35,5.27-2.57q5.33,10.28,10.07,14.56,6.62,6.08,14.28,6.07a11.26,11.26,0,0,0,8.38-3.32,10.31,10.31,0,0,0,3.28-7.39,10.17,10.17,0,0,0-2-6.14q-2.1-2.72-8.07-5.28l-13.5-6q-8.71-3.85-12.1-8.43a17.13,17.13,0,0,1-3.39-10.5A17.54,17.54,0,0,1,824.31,116a19,19,0,0,1,14.06-5.54,21.38,21.38,0,0,1,8,1.4,21.85,21.85,0,0,1,6.9,4.62Z"/><path class="cls-2" d="M877.48,88.5V82.36a45,45,0,0,0,8.83-2.18,29.32,29.32,0,0,0,6.6-3.82h4.56v47.2A52.66,52.66,0,0,1,910,113.64a24.07,24.07,0,0,1,11.3-3.15,16.58,16.58,0,0,1,12.94,5.72,20.35,20.35,0,0,1,5,13.92v35.06c0,3.48.23,5.75.67,6.82a4.44,4.44,0,0,0,2.25,2.36c1.06.5,3.41.75,7.08.75v6H919v-6h2.23q4.26,0,5.61-.82a4.76,4.76,0,0,0,2-2.72q.61-1.89.61-7.81V139.41a71.6,71.6,0,0,0-.47-10.49,12,12,0,0,0-3.62-6.64,10,10,0,0,0-7-2.5,20.7,20.7,0,0,0-10,2.89,47.83,47.83,0,0,0-10.85,8.67v35.78a15.89,15.89,0,0,0,.59,5.36,3.84,3.84,0,0,0,1.93,2c.89.43,2.69.64,5.38.64h2.39v6H877.48v-6h1.81c2.85,0,4.91-.43,6.2-1.29a3.84,3.84,0,0,0,1.52-2.5q.47-1.85.47-10.28V88.5Z"/><path class="cls-2" d="M955.64,88.28V82.36q7.46-.72,15.44-6h4.49v71.25l21.51-20.83q5.14-5,5.14-6.65a1.74,1.74,0,0,0-1.11-1.57,9.75,9.75,0,0,0-3.44-.35h-3.1v-6h29.66v6a20.81,20.81,0,0,0-8,1.25,25,25,0,0,0-6.9,4.89l-16.9,15.89,19.95,26.6a35.41,35.41,0,0,0,4.68,5.42,10.66,10.66,0,0,0,3.62,2.18,20.42,20.42,0,0,0,5.67.68v6H995.28v-6h2.4c2.38,0,3.88-.23,4.5-.68a2.15,2.15,0,0,0,.94-1.82c0-.77-.59-1.86-1.76-3.29-.19-.24-.41-.53-.64-.86L985.17,146.7l-9.6,8.85v9.36c0,3.47.22,5.76.65,6.85a5,5,0,0,0,2,2.5q1.38.86,5.29.86h2.17v6H955.64v-6a26.6,26.6,0,0,0,6.25-.5,5.14,5.14,0,0,0,3-2.79q.9-2,.9-7.71V88.28Z"/><path class="cls-2" d="M1072.84,139.77V132q0-7.94-3.63-11.32T1059,117.28a15.76,15.76,0,0,0-5.74,1,10.13,10.13,0,0,0-4,2.64,10.75,10.75,0,0,0-2.2,3.82q-.28.8-1.4,6.07-1.35,6.43-5.44,6.43a4.5,4.5,0,0,1-3.77-1.89,8.24,8.24,0,0,1-1.43-5.11,17.15,17.15,0,0,1,2.86-9.25,21.31,21.31,0,0,1,8.74-7.49,30.41,30.41,0,0,1,13.88-3,27,27,0,0,1,12.81,2.82,17.54,17.54,0,0,1,7.83,8.1c1.17,2.42,1.76,6.85,1.76,13.26v27.47a59.73,59.73,0,0,0,.29,7.63,8.63,8.63,0,0,0,2.25,4.6,5.81,5.81,0,0,0,4.18,1.54,17.72,17.72,0,0,0,6.43-1.52v6.23a26.58,26.58,0,0,1-8.71,1.71,15.33,15.33,0,0,1-7-1.43,11.93,11.93,0,0,1-4.65-4.17,15.73,15.73,0,0,1-2.33-6.54q-7,6.72-12.69,9.43a26.29,26.29,0,0,1-11.46,2.71,17.12,17.12,0,0,1-13.09-5.35,17.78,17.78,0,0,1-5-12.57,19.26,19.26,0,0,1,1.84-8.29,19.47,19.47,0,0,1,5.62-6.92q3.78-3,11.85-5.29A165,165,0,0,1,1072.84,139.77Zm0,6.22q-13.57,2.41-16.79,3.35-6.37,1.78-9.12,3.93a13,13,0,0,0-3.92,4.61,12.06,12.06,0,0,0-1.17,5.24,11.87,11.87,0,0,0,1.31,5.39,10.13,10.13,0,0,0,3.72,4.11,9.43,9.43,0,0,0,5.09,1.5,21,21,0,0,0,8.6-2.21q4.79-2.22,12.28-8.64Z"/></svg>